<svg width="146" height="60" viewBox="0 0 146 60" fill="none" xmlns="http://www.w3.org/2000/svg">
<g filter="url(#filter0_i_1_17)">
<circle cx="30" cy="30" r="30" fill="#1F3454"/>
<circle cx="116" cy="30" r="30" fill="#1F3454"/>
<rect x="30" width="83" height="60" fill="#1F3454"/>
<path d="M8 33L8.22451 33.691H8.95106L8.36327 34.118L8.58779 34.809L8 34.382L7.41221 34.809L7.63673 34.118L7.04894 33.691H7.77549L8 33Z" fill="white"/>
<path d="M30.5 25L30.8368 26.0365H31.9266L31.0449 26.6771L31.3817 27.7135L30.5 27.0729L29.6183 27.7135L29.9551 26.6771L29.0734 26.0365H30.1632L30.5 25Z" fill="white"/>
<path d="M11.75 15.201L12.5599 15.9302L13.5037 15.3853L13.0604 16.3809L13.8703 17.1101L12.7865 16.9962L12.3432 17.9918L12.1166 16.9258L11.0328 16.8119L11.9766 16.267L11.75 15.201Z" fill="white"/>
<path d="M19.2929 45.2929L19.9402 45.6227L20.454 45.109L20.3403 45.8266L20.9877 46.1564L20.2701 46.2701L20.1564 46.9877L19.8266 46.3403L19.109 46.454L19.6227 45.9402L19.2929 45.2929Z" fill="white"/>
<path d="M49 11L49.2245 11.691H49.9511L49.3633 12.118L49.5878 12.809L49 12.382L48.4122 12.809L48.6367 12.118L48.0489 11.691H48.7755L49 11Z" fill="white"/>
<path d="M94.5554 2.97419L95.5658 3.38245L96.2663 2.5476L96.1903 3.63476L97.2008 4.04301L96.1433 4.30666L96.0673 5.39382L95.4898 4.4696L94.4323 4.73325L95.1329 3.89841L94.5554 2.97419Z" fill="white"/>
<path d="M64.5 47L64.6123 47.3455H64.9755L64.6816 47.559L64.7939 47.9045L64.5 47.691L64.2061 47.9045L64.3184 47.559L64.0245 47.3455H64.3877L64.5 47Z" fill="white"/>
<path d="M73.5 19L73.6123 19.3455H73.9755L73.6816 19.559L73.7939 19.9045L73.5 19.691L73.2061 19.9045L73.3184 19.559L73.0245 19.3455H73.3877L73.5 19Z" fill="white"/>
<path d="M73.4393 32.4393L74.4104 32.9341L75.181 32.1635L75.0105 33.2399L75.9815 33.7347L74.9051 33.9051L74.7346 34.9815L74.2399 34.0105L73.1635 34.181L73.9341 33.4104L73.4393 32.4393Z" fill="white"/>
<path d="M85.987 51.0905L86.6579 51.9492L87.682 51.5765L87.0726 52.48L87.7436 53.3388L86.696 53.0384L86.0865 53.9419L86.0485 52.8527L85.0009 52.5523L86.025 52.1796L85.987 51.0905Z" fill="white"/>
<path d="M67.299 5.75L68.1089 6.47923L69.0527 5.93432L68.6095 6.92992L69.4194 7.65914L68.3355 7.54523L67.8922 8.54082L67.6657 7.47482L66.5818 7.36091L67.5256 6.816L67.299 5.75Z" fill="white"/>
<path d="M49.183 33.951L50.2629 34.9233L51.5213 34.1967L50.9302 35.5242L52.0101 36.4965L50.565 36.3446L49.974 37.6721L49.6718 36.2507L48.2267 36.0988L49.4851 35.3723L49.183 33.951Z" fill="white"/>
<path d="M38.5 48L38.8368 49.0365H39.9266L39.0449 49.6771L39.3817 50.7135L38.5 50.0729L37.6183 50.7135L37.9551 49.6771L37.0734 49.0365H38.1632L38.5 48Z" fill="white"/>
<path d="M94 14L94.2245 14.691H94.9511L94.3633 15.118L94.5878 15.809L94 15.382L93.4122 15.809L93.6367 15.118L93.0489 14.691H93.7755L94 14Z" fill="white"/>
<path d="M92.866 32.5L93.406 32.9862L94.0352 32.6229L93.7396 33.2866L94.2796 33.7728L93.557 33.6968L93.2615 34.3605L93.1104 33.6499L92.3879 33.5739L93.0171 33.2107L92.866 32.5Z" fill="white"/>
<path d="M20.5 6L20.6123 6.34549H20.9755L20.6816 6.55902L20.7939 6.90451L20.5 6.69098L20.2061 6.90451L20.3184 6.55902L20.0245 6.34549H20.3877L20.5 6Z" fill="white"/>
<path d="M25 11L25.2245 11.691H25.9511L25.3633 12.118L25.5878 12.809L25 12.382L24.4122 12.809L24.6367 12.118L24.0489 11.691H24.7755L25 11Z" fill="white"/>
<circle cx="116" cy="30" r="30" fill="#AAAAAA"/>
<circle cx="106.5" cy="18.5" r="6.5" fill="#D9D9D9"/>
<circle cx="120" cy="33" r="4" fill="#D9D9D9"/>
<circle cx="131" cy="45" r="3" fill="#D9D9D9"/>
<circle cx="124" cy="16" r="4" fill="#D9D9D9"/>
<circle cx="100.5" cy="38.5" r="1.5" fill="#D9D9D9"/>
<circle cx="115.5" cy="45.5" r="1.5" fill="#D9D9D9"/>
<circle cx="118.5" cy="23.5" r="1.5" fill="#D9D9D9"/>
<circle cx="116.5" cy="10.5" r="1.5" fill="#D9D9D9"/>
</g>
<defs>
<filter id="filter0_i_1_17" x="0" y="0" width="146" height="64" filterUnits="userSpaceOnUse" color-interpolation-filters="sRGB">
<feFlood flood-opacity="0" result="BackgroundImageFix"/>
<feBlend mode="normal" in="SourceGraphic" in2="BackgroundImageFix" result="shape"/>
<feColorMatrix in="SourceAlpha" type="matrix" values="0 0 0 0 0 0 0 0 0 0 0 0 0 0 0 0 0 0 127 0" result="hardAlpha"/>
<feOffset dy="4"/>
<feGaussianBlur stdDeviation="2"/>
<feComposite in2="hardAlpha" operator="arithmetic" k2="-1" k3="1"/>
<feColorMatrix type="matrix" values="0 0 0 0 0 0 0 0 0 0 0 0 0 0 0 0 0 0 0.25 0"/>
<feBlend mode="normal" in2="shape" result="effect1_innerShadow_1_17"/>
</filter>
</defs>
</svg>
