<?xml version="1.0" ?><svg xmlns="http://www.w3.org/2000/svg" xmlns:xlink="http://www.w3.org/1999/xlink" version="1.1" viewBox="0 0 64 64" style="enable-background:new 0 0 64 64;" xml:space="preserve"><g id="flag"/><g id="dwarf"/><g id="weapon"/><g id="magic_potion"/><g id="magic_fire"/><g id="elf"><g><path d="M25,30c0.6,0,1-0.4,1-1c0-0.6,0.4-1,1-1s1,0.4,1,1c0,0.6,0.4,1,1,1s1-0.4,1-1c0-1.7-1.3-3-3-3s-3,1.3-3,3    C24,29.6,24.4,30,25,30z"/><path d="M35,30c0.6,0,1-0.4,1-1c0-0.6,0.4-1,1-1s1,0.4,1,1c0,0.6,0.4,1,1,1s1-0.4,1-1c0-1.7-1.3-3-3-3s-3,1.3-3,3    C34,29.6,34.4,30,35,30z"/><path d="M29.2,34.6c0.7,0.9,1.7,1.4,2.8,1.4s2.1-0.5,2.8-1.4c0.3-0.4,0.2-1.1-0.2-1.4c-0.4-0.3-1.1-0.2-1.4,0.2    c-0.6,0.8-1.8,0.8-2.4,0c-0.3-0.4-1-0.5-1.4-0.2C29,33.5,28.9,34.2,29.2,34.6z"/><path d="M52,41h-4V29c0,0,0-0.1,0-0.1c1.6-1,2.8-2.5,3.4-4.4l1.6-5.2c0.1-0.4,0-0.8-0.3-1.1s-0.7-0.3-1.1-0.1L48,19.9V19    c0-8.8-7.2-16-16-16s-16,7.2-16,16v0.9l-3.6-1.8c-0.4-0.2-0.8-0.1-1.1,0.1c-0.3,0.3-0.4,0.7-0.3,1.1l1.6,5.2    c0.6,1.9,1.8,3.4,3.4,4.4c0,0,0,0.1,0,0.1v12h-4c-0.6,0-1,0.4-1,1v1c0,0.1,0,0.2,0.1,0.3c0,0.1-0.1,0.2-0.1,0.3    c0,1.7,1.2,3.1,2.8,3.4C12,49.2,11,52,11,55v5c0,0.6,0.4,1,1,1h40c0.6,0,1-0.4,1-1v-5c0-3-1.1-5.8-2.8-8.1    c1.6-0.3,2.8-1.7,2.8-3.4c0-0.1,0-0.2-0.1-0.3c0-0.1,0.1-0.2,0.1-0.3v-1C53,41.4,52.6,41,52,41z M43.1,49.6c0.1,0.3,0.2,0.9,0.1,1    c-0.2,0.2-1.2,0.2-1.8,0.3c-0.9,0-1.8,0.1-2.6,0.4c-0.8,0.4-1.2,1-1.6,1.6c-0.3,0.5-0.7,1-1,1.1c-0.4,0.1-1.1-0.2-1.7-0.5    c-0.8-0.4-1.6-0.7-2.5-0.7s-1.7,0.4-2.5,0.7c-0.6,0.3-1.3,0.6-1.7,0.5c-0.4-0.1-0.7-0.6-1-1.1c-0.4-0.6-0.9-1.3-1.6-1.7    c-0.7-0.4-1.7-0.4-2.6-0.4c-0.6,0-1.6-0.1-1.8-0.2c-0.1-0.1,0-0.7,0.1-1c0.1-0.7,0.3-1.5-0.1-2.3c-0.3-0.7-1-1.1-1.7-1.6    c-0.1-0.1-0.3-0.2-0.5-0.3c1.6-0.9,3.5-1.4,5.4-1.4c0.1,0,0.2,0,0.3,0c0.6,1.3,2.5,4,7.7,4s7.1-2.7,7.7-4c0.1,0,0.2,0,0.3,0    c2,0,3.8,0.5,5.4,1.4c-0.2,0.1-0.3,0.2-0.5,0.3c-0.7,0.5-1.4,0.9-1.7,1.6C42.8,48.1,43,48.9,43.1,49.6z M21,24    c2.4-0.1,8.6-0.8,11-4c2.4,3.2,8.6,3.8,11,4v4c0,6.1-4.9,11-11,11s-11-4.9-11-11V24z M28,40.4c1.3,0.4,2.6,0.6,4,0.6    s2.8-0.2,4-0.6c0.1,1.2,0.8,2.3,1.7,3c-0.5,0.9-2,2.7-5.8,2.7c-3.8,0-5.3-1.7-5.8-2.7C27.2,42.7,27.9,41.6,28,40.4z M46,43    c0,0.1,0,0.2,0.1,0.3c0,0.1,0,0.1,0,0.2c-1.8-0.9-3.8-1.5-6-1.5c-1.1,0-2-0.9-2-2v-0.5c3.6-1.9,6.2-5.4,6.8-9.6    c0.4,0,0.8-0.1,1.2-0.2V43z M49.5,23.9c-0.6,2.1-2.4,3.6-4.5,4v-4.3l5.4-2.7L49.5,23.9z M18,19c0-7.7,6.3-14,14-14s14,6.3,14,14    v1.9L43.8,22c-1.6,0-10.8-0.5-10.8-5c0-0.6-0.4-1-1-1s-1,0.4-1,1c0,4.5-9.2,4.9-10.8,5L18,20.9V19z M13.6,20.9l5.4,2.7v4.3    c-2.1-0.4-3.8-1.9-4.5-4L13.6,20.9z M19.2,29.9c0.6,4.2,3.2,7.7,6.8,9.6V40c0,1.1-0.9,2-2,2c-2.1,0-4.2,0.5-6,1.5    c0-0.1,0-0.1,0-0.2c0-0.1,0.1-0.2,0.1-0.3V29.7C18.4,29.8,18.8,29.9,19.2,29.9z M13,43.5c0-0.1,0-0.2-0.1-0.3    c0-0.1,0.1-0.2,0.1-0.3h3c0,0.1,0,0.2,0.1,0.3c0,0.1-0.1,0.2-0.1,0.3c0,0.8-0.7,1.5-1.5,1.5S13,44.3,13,43.5z M51,59H13v-4    c0-2.9,1.1-5.7,3.2-7.8c0.2-0.2,0.4-0.4,0.6-0.6c0.3,0.3,0.7,0.6,1.1,0.8c0.3,0.2,0.9,0.6,1,0.8c0.1,0.1,0,0.7-0.1,1    c-0.2,0.9-0.4,2,0.5,2.9c0.8,0.7,1.9,0.7,3.1,0.8c0.7,0,1.4,0.1,1.8,0.2c0.3,0.1,0.6,0.6,0.9,1c0.5,0.7,1.1,1.7,2.3,1.9    c0.2,0,0.4,0.1,0.6,0.1c0.8,0,1.6-0.4,2.4-0.7c0.6-0.3,1.2-0.5,1.7-0.5s1.1,0.3,1.7,0.5c1,0.4,1.9,0.9,3,0.6    c1.1-0.2,1.8-1.2,2.3-1.9c0.3-0.4,0.6-0.8,0.8-1c0.4-0.2,1.1-0.2,1.8-0.2c1.1,0,2.3-0.1,3.1-0.8c0.9-0.8,0.7-2,0.5-2.9    c-0.1-0.3-0.2-0.8-0.1-1c0.1-0.2,0.7-0.6,1-0.8c0.4-0.2,0.8-0.5,1.1-0.8c2.4,2,3.9,5,3.9,8.4V59z M49.5,45c-0.8,0-1.5-0.7-1.5-1.5    c0-0.1,0-0.2-0.1-0.3c0-0.1,0.1-0.2,0.1-0.3h3c0,0.1,0,0.2,0.1,0.3c0,0.1-0.1,0.2-0.1,0.3C51,44.3,50.3,45,49.5,45z"/></g></g><g id="crown"/><g id="tower"/><g id="magic_broom"/><g id="knight"/><g id="magic_book"/><g id="unicorn"/><g id="wizard"/><g id="witch"/><g id="magic_wand"/><g id="queen"/><g id="forest"/><g id="home_tree"/><g id="king"/><g id="castle"/></svg>