<?xml version="1.0" ?><!DOCTYPE svg  PUBLIC '-//W3C//DTD SVG 1.0//EN'  'http://www.w3.org/TR/2001/REC-SVG-20010904/DTD/svg10.dtd'><svg height="100px" style="enable-background:new 0 0 100 100;" version="1.0" viewBox="0 0 100 100" width="100px" xml:space="preserve" xmlns="http://www.w3.org/2000/svg" xmlns:xlink="http://www.w3.org/1999/xlink"><g id="_x31_"/><g id="_x32_"/><g id="_x33_"/><g id="_x34_"/><g id="_x35_"/><g id="_x36_"/><g id="_x37_"/><g id="_x38_"/><g id="_x39_"/><g id="_x31_0"><path d="M49.8,81.9c-4,0-7.9-1.9-11.2-3.5c-4.8-2.3-7-3.2-8.5-1.4c-3,3.4-7.1,3.9-11,1.4c-1.5-1-2.5-2.6-2.7-4.5   c-0.1-0.6,0-1.1,0-1.6c0.4-2.5,1.9-11,5.1-16.7c0.3-0.5,0.5-0.9,0.7-1.4c2.1-4.6,2.6-9.4,2.6-10.8c0-0.3,0-0.4,0-0.4   c0-13.8,11.2-25,25-25c6.7,0,12.9,2.6,17.7,7.3c4.7,4.7,7.3,10.9,7.3,17.5l0.1,0.6c0.8,4.9,1.8,9,2.7,10.9c0.2,0.3,0.3,0.6,0.4,0.7   c1.8,2.4,3.7,10.1,5.1,16.2v0c0.3,1.3,0.3,2.7,0,4c-0.2,0.9-0.5,1.4-0.9,1.8c-1.6,1.8-5.9,3.8-12.1,0.2c-2.8-1.6-5.5-0.5-9.6,1.4   C57.4,80.3,53.9,81.9,49.8,81.9C49.8,81.9,49.8,81.9,49.8,81.9z M32,72.1c2.7,0,5.7,1.4,8.4,2.8c3.1,1.5,6.3,3.1,9.5,3.1   c0,0,0,0,0,0c3.2,0,6.1-1.4,8.9-2.7c4.2-2,8.6-4.1,13.4-1.3c4.5,2.6,6.6,1.1,7.1,0.6c0.1-0.7,0.1-1.4,0-2.2l0,0   c-1.7-7.6-3.4-13.3-4.4-14.7c-0.3-0.4-0.5-0.8-0.8-1.4c-1.5-3.1-2.5-8.9-3-12l-0.1-0.8c0-0.1,0-0.2,0-0.3c0-5.6-2.2-10.9-6.2-14.8   c-4-4-9.2-6.1-14.8-6.1c-11.6,0-21,9.4-21,21c0,0,0,0.2,0,0.6c-0.1,2-0.6,7.2-3,12.2c-0.3,0.6-0.6,1.2-0.8,1.7   C22,62.9,20.6,71.3,20.3,73c0,0.2,0,0.3,0,0.5c0.1,0.7,0.4,1.2,1,1.6c2.9,1.9,4.7,0.5,5.8-0.8C28.5,72.7,30.2,72.1,32,72.1z    M46,48.4c-0.5,0-1-0.2-1.4-0.6c0,0-1.3-1.1-4-1c-3,0.1-4.4,1.1-4.4,1.1c-0.6,0.4-1.4,0.5-2.1,0.2c-0.7-0.3-1.1-1-1.1-1.8v-5.3   c0-4.1,3.4-7.5,7.5-7.5c2,0,3.9,0.8,5.3,2.2c1.4,1.4,2.2,3.3,2.2,5.3v5.3c0,0.8-0.5,1.5-1.2,1.8C46.5,48.4,46.2,48.4,46,48.4z    M40.5,37.6c-1.9,0-3.5,1.6-3.5,3.5v2.3c0.9-0.2,2.1-0.4,3.4-0.5c1.4-0.1,2.6,0.1,3.6,0.4v-2.2c0-0.9-0.4-1.8-1-2.5   C42.3,37.9,41.4,37.6,40.5,37.6z M64.8,48.4c-0.5,0-1-0.2-1.4-0.6c0,0-1.3-1.1-4-1C56.4,47,55,48,55,48c-0.6,0.4-1.4,0.5-2.1,0.2   c-0.7-0.3-1.1-1-1.1-1.8v-5.3c0-4.1,3.4-7.5,7.5-7.5c2,0,3.9,0.8,5.3,2.2c1.4,1.4,2.2,3.3,2.2,5.3v5.3c0,0.8-0.5,1.5-1.2,1.8   C65.3,48.4,65.1,48.4,64.8,48.4z M59.3,37.6c-1.9,0-3.5,1.6-3.5,3.5v2.3c0.9-0.2,2.1-0.4,3.4-0.5c1.4-0.1,2.6,0.1,3.6,0.4v-2.2   c0-0.9-0.4-1.8-1-2.5C61.1,37.9,60.2,37.6,59.3,37.6z M49.8,66.5c-3.3,0-6-3.2-6-7.1s2.7-7.1,6-7.1c3.3,0,6,3.2,6,7.1   S53.1,66.5,49.8,66.5z M49.8,56.3c-0.9,0-2,1.3-2,3.1s1,3.1,2,3.1c0.9,0,2-1.3,2-3.1S50.7,56.3,49.8,56.3z M24,57.1   c-0.5,0-1-0.2-1.4-0.6l-6.1-6.1c-2.8-2.8-2.8-7.2,0-10c1.3-1.3,3.1-2.1,5-2.1s3.6,0.7,5,2.1l1.8,1.8c0.4,0.4,0.6,1,0.6,1.5   c-0.1,2-0.6,7.1-3,12.2c-0.3,0.6-0.8,1-1.5,1.1C24.2,57.1,24.1,57.1,24,57.1z M21.5,42.4c-0.8,0-1.6,0.3-2.2,0.9   c-1.2,1.2-1.2,3.1,0,4.3l4,4c1-2.9,1.3-5.6,1.5-7.2l-1.1-1.1C23,42.7,22.3,42.4,21.5,42.4z M75.8,57.3c-0.1,0-0.2,0-0.3,0   c-0.6-0.1-1.2-0.5-1.5-1.1c-1.5-3.1-2.5-8.9-3-12c-0.1-0.6,0.1-1.3,0.6-1.7l2-2c1.3-1.3,3.1-2.1,5-2.1s3.7,0.7,5,2.1   c2.8,2.8,2.8,7.2,0,10l-6.3,6.4C76.8,57.1,76.3,57.3,75.8,57.3z M75.1,44.6c0.5,2.8,1,5.2,1.5,7.1l4.1-4.1c0,0,0,0,0,0   c1.2-1.2,1.2-3.1,0-4.3c-1.2-1.2-3.2-1.2-4.3,0L75.1,44.6z"/></g><g id="_x31_1"/><g id="_x31_2"/><g id="_x31_3"/><g id="_x31_4"/><g id="_x31_5"/><g id="_x31_6"/><g id="_x31_7"/><g id="_x31_8"/><g id="_x31_9"/><g id="_x32_0"/><g id="_x32_1"/><g id="_x32_2"/><g id="_x32_3"/></svg>