<svg width="826" height="298" viewBox="0 0 826 298" fill="none" xmlns="http://www.w3.org/2000/svg">
<line y1="-0.5" x2="27.303" y2="-0.5" transform="matrix(-0.462531 0.886603 -0.847651 -0.530554 271.398 91.8739)" stroke="black"/>
<line y1="-0.5" x2="106.703" y2="-0.5" transform="matrix(-0.914423 0.404759 -0.346129 -0.938187 259.822 114.928)" stroke="black"/>
<line y1="-0.5" x2="175.658" y2="-0.5" transform="matrix(-0.730909 0.682476 -0.614176 -0.789169 163.004 157.579)" stroke="black"/>
<line x1="35.1663" y1="277.461" x2="35.1663" y2="135.677" stroke="black"/>
<line y1="-0.5" x2="168.185" y2="-0.5" transform="matrix(0.963614 -0.267299 0.225261 0.974299 35.6663 136.83)" stroke="black"/>
<line x1="742.362" y1="35.391" x2="742.362" y2="0.809578" stroke="black"/>
<rect x="196.68" y="10.0313" width="89.4519" height="82.9953"/>
<rect x="616.577" y="35.391" width="209.423" height="23.0543"/>
<rect width="44.6702" height="107.605" transform="matrix(0.948242 0.317548 -0.268842 0.963184 619.557 38.5597)"/>
<path d="M608.768 77.1877L632.818 156.579L586.193 157.097L608.768 77.1877Z"/>
<rect x="286.132" y="35.391" width="157.856" height="57.6356"/>
<rect x="436.621" y="35.391" width="184.166" height="42.6504"/>
<rect x="741.81" y="0.80957" width="7.36663" height="34.5814"/>
<rect x="437.674" y="78.0413" width="59.9854" height="210.946"/>
<rect x="336.646" y="91.8739" width="101.028" height="23.0543"/>
<path d="M342.984 88.3382L336.657 114.909L318.04 91.0845L342.984 88.3382Z"/>
<rect width="39.9159" height="146.663" transform="matrix(0.920666 0.390352 -0.333196 0.942858 342.419 98.2429)"/>
<path d="M308.231 195.618L329.193 250.948H287.27L308.231 195.618Z"/>
<rect width="224.52" height="41.1465" transform="matrix(0.961478 -0.274881 0.231799 0.972764 34.2344 135.86)"/>
<path d="M104.007 158.226L218.818 110.411L40.2969 273.254L104.007 158.226Z"/>
<path d="M248.249 91.607L273.369 89.2116L258.781 116.701L248.249 91.607Z"/>
<rect x="391.369" y="114.928" width="6.31425" height="28.8178"/>
<rect width="30.7697" height="98.2648" transform="matrix(0.340148 0.940372 -0.917339 0.398106 249.023 86.922)"/>
<rect width="3.18913" height="46.2496" transform="matrix(0.938116 0.346321 -0.294089 0.955778 424.966 112.623)"/>
<rect x="362.955" y="155.273" width="51.5664" height="3.45814"/>
<rect x="35" y="138" width="69" height="77"/>
<path d="M82.8181 234.329L34.9125 278.261L35.54 189.722L82.8181 234.329Z"/>
<rect x="58" y="213" width="18" height="9"/>
</svg>
