<?xml version="1.0" encoding="iso-8859-1"?>
<!-- Uploaded to: SVG Repo, www.svgrepo.com, Generator: SVG Repo Mixer Tools -->
<svg fill="#000000" height="800px" width="800px" version="1.1" id="Capa_1" xmlns="http://www.w3.org/2000/svg" xmlns:xlink="http://www.w3.org/1999/xlink" 
	 viewBox="0 0 470 470" xml:space="preserve">
<g>
	<path d="M20,105.122v30.073c0,4.142,3.358,7.5,7.5,7.5H30v42.5c0,4.142,3.358,7.5,7.5,7.5h395c4.142,0,7.5-3.358,7.5-7.5v-42.5h2.5
		c4.142,0,7.5-3.358,7.5-7.5v-30.073c0-0.033,0-29.927,0-29.927c0-4.142-3.358-7.5-7.5-7.5s-7.5,3.358-7.5,7.5v20.917L242.5,59.004
		V35.196c0-4.142-3.358-7.5-7.5-7.5s-7.5,3.358-7.5,7.5v23.808L35,96.112V75.196c0-4.142-3.358-7.5-7.5-7.5s-7.5,3.358-7.5,7.5
		C20,75.196,20,105.089,20,105.122z M425,177.695H45v-35h380V177.695z M235,72.834l200,38.554v16.308h-2.49c-0.019,0-395,0-395,0
		c-0.019,0-2.51,0-2.51,0v-16.308L235,72.834z"/>
	<path d="M462.5,397.304H450v-22.5c0-4.142-3.358-7.5-7.5-7.5H420V222.695h2.5c4.142,0,7.5-3.358,7.5-7.5s-3.358-7.5-7.5-7.5h-50
		c-4.142,0-7.5,3.358-7.5,7.5s3.358,7.5,7.5,7.5h2.5v144.609h-36.25V222.695h2.5c4.142,0,7.5-3.358,7.5-7.5s-3.358-7.5-7.5-7.5h-50
		c-4.142,0-7.5,3.358-7.5,7.5s3.358,7.5,7.5,7.5h2.5v144.609H257.5V222.695h2.5c4.142,0,7.5-3.358,7.5-7.5s-3.358-7.5-7.5-7.5h-50
		c-4.142,0-7.5,3.358-7.5,7.5s3.358,7.5,7.5,7.5h2.5v144.609h-36.25V222.695h2.5c4.142,0,7.5-3.358,7.5-7.5s-3.358-7.5-7.5-7.5h-50
		c-4.142,0-7.5,3.358-7.5,7.5s3.358,7.5,7.5,7.5h2.5v144.609H95V222.695h2.5c4.142,0,7.5-3.358,7.5-7.5s-3.358-7.5-7.5-7.5h-50
		c-4.142,0-7.5,3.358-7.5,7.5s3.358,7.5,7.5,7.5H50v144.609H27.5c-4.142,0-7.5,3.358-7.5,7.5v22.5H7.5c-4.142,0-7.5,3.358-7.5,7.5
		v30c0,4.142,3.358,7.5,7.5,7.5h455c4.142,0,7.5-3.358,7.5-7.5v-30C470,400.662,466.642,397.304,462.5,397.304z M390,222.695h15
		v144.609h-15V222.695z M308.75,222.695h15v144.609h-15V222.695z M227.5,222.695h15v144.609h-15V222.695z M146.25,222.695h15
		v144.609h-15V222.695z M65,222.695h15v144.609H65V222.695z M455,427.304H15v-15h72.5c4.142,0,7.5-3.358,7.5-7.5s-3.358-7.5-7.5-7.5
		H35v-15h400v15H117.5c-4.142,0-7.5,3.358-7.5,7.5s3.358,7.5,7.5,7.5H455V427.304z"/>
</g>
</svg>