<svg xmlns="http://www.w3.org/2000/svg" xmlns:xlink="http://www.w3.org/1999/xlink" version="1.1" viewBox="0 0 64 64" style="enable-background:new 0 0 64 64;" xml:space="preserve"><g id="flag"/><g id="dwarf"/><g id="weapon"/><g id="magic_potion"/><g id="magic_fire"/><g id="elf"/><g id="crown"/><g id="tower"/><g id="magic_broom"/><g id="knight"><g><path d="M31,23v7c0,0.6,0.4,1,1,1s1-0.4,1-1v-7c0-0.6-0.4-1-1-1S31,22.4,31,23z"/><path d="M27,23c-0.6,0-1,0.4-1,1v6c0,0.6,0.4,1,1,1s1-0.4,1-1v-6C28,23.4,27.6,23,27,23z"/><path d="M22,25c-0.6,0-1,0.4-1,1v4c0,0.6,0.4,1,1,1s1-0.4,1-1v-4C23,25.4,22.6,25,22,25z"/><path d="M37,31c0.6,0,1-0.4,1-1v-6c0-0.6-0.4-1-1-1s-1,0.4-1,1v6C36,30.6,36.4,31,37,31z"/><path d="M42,31c0.6,0,1-0.4,1-1v-4c0-0.6-0.4-1-1-1s-1,0.4-1,1v4C41,30.6,41.4,31,42,31z"/><path d="M56.6,55.9c-0.4-4.5-4.1-8-8.6-8.3l-4-0.2c-2.2-0.2-3.9-2-4-4.2c2.8-2.2,4.6-5.5,4.9-9.2H46c0.6,0,1-0.4,1-1v-9    c0-0.4-0.2-0.8-0.6-0.9L46,22.9c0-5.9-4.4-10.8-10-11.7V8.6c1.1,0.1,4.5,2.3,8.3,6.1c0.2,0.2,0.4,0.3,0.7,0.3c0.1,0,0.3,0,0.4-0.1    c0.4-0.2,0.6-0.5,0.6-0.9c0-1.5-0.5-2.8-1-3.8c4,0,5.7-2.5,5.8-2.7c0.2-0.3,0.2-0.8,0-1.1c-0.2-0.3-0.6-0.5-1-0.4    c-2.9,0.5-5-0.3-7.5-1.2C40.1,4,37.5,3,34,3c-3,0-4.9,0.7-5.8,2.1c-0.7,1.1-0.5,2.4-0.2,3.1v3c-5.6,1-10,5.8-10,11.7l-0.4,0.2    C17.2,23.2,17,23.6,17,24v9c0,0.6,0.4,1,1,1h1.1c0.3,3.7,2.1,7,4.9,9.2c-0.1,2.2-1.8,4-4,4.2l-4,0.2c-4.5,0.3-8.2,3.8-8.6,8.3    l-0.4,4c0,0.3,0.1,0.6,0.3,0.8S7.7,61,8,61h24h24c0.3,0,0.5-0.1,0.7-0.3s0.3-0.5,0.3-0.8L56.6,55.9z M45,32h-5.8    c-2.7,0-5.2,0.9-7.2,2.6c-2-1.7-4.6-2.6-7.2-2.6H19v-7.3l13-5.6l13,5.6V32z M29.9,6.2C30.2,5.7,31.1,5,34,5c3.1,0,5.4,0.8,7.6,1.7    c1.6,0.6,3.1,1.1,4.8,1.4c-0.9,0.2-1.9,0.2-3.2,0c-0.4-0.1-0.9,0.1-1.1,0.5c-0.2,0.4-0.1,0.9,0.2,1.2c0,0,0.5,0.5,0.9,1.3    c-0.6-0.5-1.2-1-1.8-1.5c-2.1-1.6-5-3.6-6.7-2.5h-4.9C29.7,6.7,29.7,6.4,29.9,6.2z M30,9h4v2h-4V9z M30,13h4c5.2,0,9.5,4,10,9    l-11.6-5c-0.3-0.1-0.5-0.1-0.8,0L20,22C20.5,17,24.8,13,30,13z M21.1,34h3.7c2.5,0,4.8,1,6.5,2.7c0.2,0.2,0.5,0.3,0.7,0.3    s0.5-0.1,0.7-0.3c1.7-1.7,4.1-2.7,6.5-2.7h3.7c-0.5,5.6-5.2,10-10.9,10S21.6,39.6,21.1,34z M32,46c2.2,0,4.3-0.6,6.2-1.6    c0.3,1.3,1,2.4,1.9,3.3c0,0,0,0.1-0.1,0.1c0,0.3-1.2,6.2-8,6.2c-6.8,0-8-5.9-8-6.2c0,0,0-0.1-0.1-0.1c0.9-0.9,1.6-2,1.9-3.3    C27.7,45.4,29.8,46,32,46z M20.1,49.4c0.7-0.1,1.4-0.2,2.1-0.5C22.8,50.7,25,56,32,56c7,0,9.2-5.3,9.8-7.2    c0.7,0.3,1.4,0.5,2.1,0.5l1.1,0.1V59H32H19v-9.6L20.1,49.4z M9.4,56.1c0.3-3.5,3.2-6.3,6.7-6.5l1-0.1V59H9.1L9.4,56.1z M47,59    v-9.4l1,0.1c3.5,0.2,6.4,3,6.7,6.5l0.3,2.9H47z"/></g></g><g id="magic_book"/><g id="unicorn"/><g id="wizard"/><g id="witch"/><g id="magic_wand"/><g id="queen"/><g id="forest"/><g id="home_tree"/><g id="king"/><g id="castle"/></svg>
